<svg width="17" height="16" viewBox="0 0 17 16" fill="none" xmlns="http://www.w3.org/2000/svg">
<path d="M5.54875 14.6666C5.91694 14.6666 6.21541 14.3682 6.21541 14C6.21541 13.6318 5.91694 13.3333 5.54875 13.3333C5.18056 13.3333 4.88208 13.6318 4.88208 14C4.88208 14.3682 5.18056 14.6666 5.54875 14.6666Z" stroke="#020817" stroke-width="1.33333" stroke-linecap="round" stroke-linejoin="round"/>
<path d="M12.8821 14.6666C13.2503 14.6666 13.5488 14.3682 13.5488 14C13.5488 13.6318 13.2503 13.3333 12.8821 13.3333C12.5139 13.3333 12.2155 13.6318 12.2155 14C12.2155 14.3682 12.5139 14.6666 12.8821 14.6666Z" stroke="#020817" stroke-width="1.33333" stroke-linecap="round" stroke-linejoin="round"/>
<path d="M1.58215 1.36664H2.91549L4.68882 9.64664C4.75387 9.94988 4.9226 10.221 5.16596 10.4132C5.40932 10.6055 5.71209 10.7069 6.02215 10.7H12.5422C12.8456 10.6995 13.1398 10.5955 13.3762 10.4052C13.6125 10.2149 13.7769 9.94966 13.8422 9.6533L14.9422 4.69997H3.62882" stroke="#020817" stroke-width="1.33333" stroke-linecap="round" stroke-linejoin="round"/>
</svg>
